<?xml version="1.0" standalone="no"?>
<!DOCTYPE svg PUBLIC "-//W3C//DTD SVG 20010904//EN"
 "http://www.w3.org/TR/2001/REC-SVG-20010904/DTD/svg10.dtd">
<svg version="1.0" xmlns="http://www.w3.org/2000/svg"
 width="440.000000pt" height="229.000000pt" viewBox="0 0 440.000000 229.000000"
 preserveAspectRatio="xMidYMid meet">

<g transform="translate(0.000000,229.000000) scale(0.100000,-0.100000)"
fill="#000000" stroke="none">
<path d="M2168 2263 c-3 -26 -6 -28 -104 -44 -163 -26 -278 -72 -382 -153
-102 -79 -193 -226 -230 -373 -10 -40 -21 -75 -24 -78 -4 -4 -624 185 -692
211 -14 6 -16 -17 -16 -235 0 -133 -1 -241 -2 -241 -2 0 -86 27 -188 59 l-185
59 -5 -233 -5 -233 -145 53 c-80 29 -155 55 -167 59 l-23 7 0 -560 0 -561
2195 0 2195 0 0 565 c0 311 -2 565 -4 565 -1 0 -74 -27 -160 -60 -87 -33 -161
-60 -166 -60 -6 0 -11 98 -12 228 l-3 228 -180 -58 c-99 -32 -186 -56 -192
-53 -10 3 -13 61 -13 242 l0 239 -321 -108 c-218 -73 -321 -103 -324 -95 -2 7
-11 41 -20 77 -44 176 -173 339 -333 419 -84 42 -223 84 -319 96 -50 7 -53 8
-53 36 0 29 0 29 -59 29 -57 0 -60 -1 -63 -27z m222 -210 c163 -32 294 -111
369 -223 46 -70 80 -155 88 -220 l5 -45 -321 -101 -320 -101 -303 93 c-166 52
-305 97 -310 102 -11 11 46 171 88 243 132 225 385 316 704 252z m-804 -743
c334 -104 616 -190 626 -190 11 0 247 72 526 161 685 218 671 213 679 205 4
-4 9 -316 12 -692 l3 -685 -83 3 -84 3 -3 578 c-1 317 -5 577 -8 577 -4 0
-241 -74 -527 -165 l-520 -166 -526 166 c-290 91 -530 165 -534 165 -4 0 -7
-261 -7 -580 l0 -580 -85 0 -85 0 0 695 c0 382 2 695 4 695 2 0 277 -85 612
-190z m-951 -163 l90 -32 0 -500 0 -500 -97 -3 -98 -3 0 536 c0 294 3 535 8
534 4 0 48 -15 97 -32z m3235 -497 l0 -530 -100 0 -100 0 0 500 0 499 93 30
c50 16 95 30 100 30 4 1 7 -237 7 -529z m-3607 155 l77 -28 0 -333 0 -334 -95
0 -95 0 0 228 c0 301 10 504 24 499 6 -2 46 -16 89 -32z m3975 -327 l-3 -363
-92 -3 -93 -3 0 334 0 334 78 31 c125 49 113 87 110 -330z m-2351 225 l323
-97 324 97 c178 53 326 97 330 97 8 0 8 -177 -1 -463 l-6 -227 -656 2 -656 3
-3 343 c-2 260 1 342 10 342 6 0 157 -44 335 -97z"/>
</g>
</svg>
